<svg width="513" height="513" viewBox="0 0 513 513" fill="none" xmlns="http://www.w3.org/2000/svg">
<path fill-rule="evenodd" clip-rule="evenodd" d="M471.893 117.547C395.409 -1.34555 237.036 -35.7333 118.127 40.7318C-0.766381 117.214 -35.1396 275.585 41.3129 394.493C117.797 513.385 276.17 547.774 395.064 471.306C513.971 394.826 548.361 236.454 471.893 117.547Z" fill="#44403C"/>
<path fill-rule="evenodd" clip-rule="evenodd" d="M406.784 139.187C391.088 125.136 370.092 115.949 350.274 106.147C306.246 84.3663 254.212 72.8938 187.599 73.5773C183.422 73.8137 179.244 74.0501 175.066 74.2852C166.958 75.6508 154.317 74.8478 147.403 77.8236C138.879 81.4951 139.59 111.813 142.201 122.43C145.459 134.582 160.258 132.14 175.304 132.914C201.026 133.304 221.68 131.591 230.159 153.818C233.104 161.541 232.287 173.489 232.287 184.028C232.208 200.938 232.13 217.857 232.051 234.769C231.893 249.636 231.736 264.508 231.578 279.374C230.711 320.986 229.844 362.611 228.977 404.222C224.755 432.21 234.933 453.42 249.311 463.932C252.819 466.497 261.494 473.902 268.464 472.192C278.449 469.742 277.686 460.096 277.685 447.648V182.377C277.685 174.349 276.475 164.227 278.394 157.36C285.451 132.104 312.733 134.294 341.288 138.715C354.133 139.658 366.983 140.604 379.828 141.547C386.07 142.524 399.972 144.709 405.601 143.199C406.438 142.023 406.855 141.437 406.784 139.187Z" fill="white"/>
</svg>
